<svg xmlns="http://www.w3.org/2000/svg" viewBox="0 0 214.54 213.88"><defs><style>.cls-1{fill:#e2b771;}.cls-2{fill:#f1c97d;}.cls-3{fill:#cea263;}.cls-4{fill:#f9d293;}</style></defs><g id="Layer_2" data-name="Layer 2"><g id="Login_Form" data-name="Login Form"><path class="cls-1" d="M214.54,116c-.92-1.89-1.89-3.91-2.76-5.76,0-.48,0-1,0-1.42,0-49-33.76-90.15-79.46-101.8-6.18-7-13.4-6.67-30.74-7-15.76-.27-20,5-21,6.69a105.55,105.55,0,0,0-35.2,15.8,51.16,51.16,0,0,0-8.54.69A129.63,129.63,0,0,1,21.5,42.69c-3.39,3.58-6.84,6.86-10.23,9.8a77.5,77.5,0,0,0,.38,8.31,104.56,104.56,0,0,0,3.12,101.54A34.06,34.06,0,0,1,16,172.09c-.43,7,13,20.42,18.29,24.25,5.08,3.65,9.29,7.31,24.59,6.6a106.37,106.37,0,0,0,144.41-52.73c1.71-1.78,3.75-3.83,5.65-5.45C209.48,133.61,211.52,123.6,214.54,116Z"/><path class="cls-2" d="M211.79,108.78c0-49-33.76-90.15-79.46-101.8-6.18-7-13.4-6.67-30.74-7-15.76-.27-20,5-21,6.69a105.55,105.55,0,0,0-35.2,15.8,51.16,51.16,0,0,0-8.54.69,123,123,0,0,1-10.77,14.4C30.69,112,84,174.72,157.87,200.37a105.79,105.79,0,0,0,45.37-50.16c1.71-1.78,3.75-3.83,5.65-5.45.59-11.15,2.63-21.16,5.65-28.8-.92-1.89-1.89-3.91-2.76-5.76C211.78,109.72,211.79,109.25,211.79,108.78Z"/><path class="cls-3" d="M95.21,10.27c-9.8-.41-12.86-3.35-13.76-4.71a6.92,6.92,0,0,0-.83,1.14q-3.06.75-6.05,1.67c-.87,12.38,30.1,6.13,32.92,4.24C110.58,10.54,108,10.8,95.21,10.27Z"/><path class="cls-3" d="M114.46,157.91c-6.65,13.26-25.35,17.34-41.77,9.11s-22.08-24.89-15.43-38.16,23.1-18.12,39.52-9.88S121.12,144.64,114.46,157.91Z"/><path class="cls-3" d="M143.79,59.9c-2,8.1-12.33,12.1-23,8.93S103,56.53,105,48.43,117.31,36.33,128,39.5,145.8,51.8,143.79,59.9Z"/><path class="cls-3" d="M118.56,71.66c-9.68-2.87-16.38-10.61-16.09-18-5.87,10.13-7.91,19.16-1.71,24.74,7.63,6.86,25.55,3.3,36.84-8.24A26.49,26.49,0,0,1,118.56,71.66Z"/><path class="cls-3" d="M189.31,132c-1.27,7.63-7.77,11.39-14.52,8.41s-11.2-11.59-9.93-19.21,7.76-11.39,14.52-8.4S190.58,124.38,189.31,132Z"/><path class="cls-3" d="M173.42,143.07c-6.11-2.7-10.32-10-10.14-17-3.71,9.54-5,18-1.08,23.28,4.81,6.46,16.1,3.11,23.21-7.75A11.75,11.75,0,0,1,173.42,143.07Z"/><path class="cls-3" d="M185,67.94c-.39,2.56-2.54,3.85-4.82,2.89a6.21,6.21,0,0,1-3.41-6.38c.38-2.56,2.54-3.85,4.81-2.88A6.19,6.19,0,0,1,185,67.94Z"/><path class="cls-3" d="M179.74,71.72a6.22,6.22,0,0,1-3.48-5.63c-1.19,3.21-1.58,6-.24,7.79,1.63,2.14,5.39,1,7.72-2.7A3.93,3.93,0,0,1,179.74,71.72Z"/><path class="cls-3" d="M17.94,70.57c-5.58,13.16-3.28,26.71,5.14,30.29s19.77-4.2,25.35-17.35,3.28-26.71-5.14-30.28S23.52,57.42,17.94,70.57Z"/><path class="cls-3" d="M14.37,139.1c2.9,6,8.35,9.3,12.17,7.43s4.56-8.2,1.65-14.17-8.36-9.29-12.17-7.43S11.46,133.14,14.37,139.1Z"/><path class="cls-3" d="M82.75,202.86c3.23,2,6.9,1.95,8.19-.12s-.3-5.38-3.54-7.39-6.9-2-8.19.12S79.51,200.85,82.75,202.86Z"/><path class="cls-3" d="M132.14,199.12c7.63,1.68,14.68-.92,15.76-5.8s-4.24-10.2-11.86-11.88-14.68.91-15.76,5.79S124.52,197.44,132.14,199.12Z"/><path class="cls-3" d="M125.36,4.67c0,1.88-8.73,3.39-19.5,3.39s-19.5-1.51-19.5-3.39,8.73-3.38,19.5-3.38S125.36,2.8,125.36,4.67Z"/><path class="cls-3" d="M49.87,200.22c-2.24,2.39-11.06-2.22-19.7-10.3s-13.83-16.57-11.6-19,11.06,2.22,19.7,10.3S52.1,197.83,49.87,200.22Z"/><path class="cls-4" d="M80.83,194.72c-1.14,2,.26,4.93,3.13,6.58s6.12,1.39,7.26-.59a1.55,1.55,0,0,0,.12-.22,8.08,8.08,0,0,0-3.94-5.14,8.32,8.32,0,0,0-6-1.34A3,3,0,0,0,80.83,194.72Z"/><path class="cls-4" d="M140.33,62.16c-1.6,6.41-10.37,9.4-19.59,6.67s-15.41-10.14-13.82-16.55,10.36-9.4,19.59-6.67S141.92,55.75,140.33,62.16Z"/><path class="cls-4" d="M187.13,134.13c-1,6-6.53,8.85-12.34,6.28s-9.71-9.54-8.71-15.58,6.53-8.85,12.34-6.28S188.14,128.09,187.13,134.13Z"/><path class="cls-4" d="M184.28,68.67a2.79,2.79,0,0,1-4.1,2.16,5.14,5.14,0,0,1-3-5.17,2.78,2.78,0,0,1,4.09-2.16A5.11,5.11,0,0,1,184.28,68.67Z"/><path class="cls-4" d="M47,58.8c-8-3.09-18.11,3.79-22.59,15.38s-1.62,23.48,6.37,26.57a7.39,7.39,0,0,0,.87.29c6.45-2,13-8.52,16.8-17.53,3.57-8.4,3.91-17,1.51-23A11.23,11.23,0,0,0,47,58.8Z"/><path class="cls-4" d="M19.09,125.34c-3.52,1.86-4.19,7.5-1.49,12.6s7.73,7.73,11.25,5.87l.37-.22c1.24-2.87,1-7.14-1-11.23-1.85-3.81-4.75-6.54-7.59-7.53A5.08,5.08,0,0,0,19.09,125.34Z"/><path class="cls-4" d="M122.9,184.7c-.85,4.6,3.86,9.35,10.53,10.59s12.78-1.48,13.64-6.09c0-.16.05-.33.07-.49-1.74-3.26-5.88-6.12-11.1-7.27-4.88-1.08-9.51-.4-12.51,1.5A6.26,6.26,0,0,0,122.9,184.7Z"/><path class="cls-4" d="M112.83,152.74c-5.69,11.35-22,14.66-36.54,7.39s-19.62-21.66-13.93-33S82.42,111.77,96.9,119,118.52,141.4,112.83,152.74Z"/><path class="cls-4" d="M106.42,4.78c-6.56,0-12.34.81-15.71,2a78.64,78.64,0,0,0,15.15,1.25,73.89,73.89,0,0,0,15.82-1.41C118.25,5.52,112.7,4.78,106.42,4.78Z"/></g></g></svg>